<?xml version="1.0" encoding="UTF-8" standalone="no"?>
<!DOCTYPE svg PUBLIC "-//W3C//DTD SVG 1.1//EN" "http://www.w3.org/Graphics/SVG/1.1/DTD/svg11.dtd">
<svg width="100%" height="100%" viewBox="0 0 660 790" version="1.1" xmlns="http://www.w3.org/2000/svg" xmlns:xlink="http://www.w3.org/1999/xlink" xml:space="preserve" xmlns:serif="http://www.serif.com/" style="fill-rule:evenodd;clip-rule:evenodd;stroke-linejoin:round;stroke-miterlimit:2;">
    <g transform="matrix(1,0,0,1,-670,-605)">
        <g transform="matrix(1,0,0,1.0186,0,0)">
            <g id="Clear" transform="matrix(-7.16044,-6.10531e-16,4.897e-16,7.49835,7489.08,-1258.76)">
                <g transform="matrix(2.40941,1.96179e-16,1.5448e-16,2.25882,55.7176,198.776)">
                    <path d="M372.123,48.247C372.116,48.654 372.1,49.062 372.069,49.469C372.008,50.269 371.897,51.065 371.736,51.851C371.205,54.443 370.127,56.914 368.593,59.07C366.95,61.381 364.793,63.318 362.318,64.702C359.982,66.009 357.376,66.812 354.711,67.049C352.225,67.27 349.699,67.006 347.315,66.264C345.027,65.552 342.88,64.403 341.014,62.9C339.225,61.458 337.698,59.696 336.528,57.718C335.496,55.973 334.745,54.065 334.313,52.084C333.917,50.265 333.789,48.388 333.931,46.531C334.075,44.634 334.505,42.76 335.203,40.989C335.995,38.983 337.13,37.116 338.541,35.486C339.996,33.806 341.743,32.382 343.682,31.298C345.595,30.228 347.692,29.492 349.854,29.133C350.57,29.014 351.293,28.937 352.018,28.9C352.341,28.883 352.663,28.877 352.987,28.875L353.013,33.125C352.814,33.126 352.815,33.126 352.615,33.13C352.424,33.136 352.425,33.136 352.233,33.144C351.422,33.191 350.616,33.292 349.821,33.466C348.166,33.827 346.576,34.475 345.139,35.373C343.672,36.289 342.367,37.461 341.298,38.82C340.259,40.142 339.446,41.639 338.907,43.232C338.428,44.643 338.168,46.126 338.13,47.615C338.095,48.995 338.249,50.38 338.594,51.717C338.97,53.179 339.573,54.581 340.373,55.861C341.32,57.379 342.542,58.723 343.962,59.811C345.393,60.909 347.024,61.744 348.754,62.259C350.617,62.814 352.588,62.995 354.522,62.798C356.587,62.588 358.6,61.939 360.399,60.904C362.314,59.803 363.975,58.275 365.233,56.46C366.406,54.769 367.221,52.837 367.609,50.816C367.726,50.202 367.805,49.58 367.845,48.956C367.865,48.636 367.873,48.315 367.875,47.993L367.875,46.938L372.125,46.938C372.125,47.374 372.126,47.81 372.123,48.247Z" style="fill-rule:nonzero;"/>
                </g>
                <g transform="matrix(2.56,2.0844e-16,1.64135e-16,2.4,1.95194e-13,194.4)">
                    <path d="M354,41L354,22L370,29.5L354,41Z"/>
                </g>
            </g>
        </g>
    </g>
</svg>
