<?xml version="1.0" encoding="UTF-8" standalone="no"?>
<!DOCTYPE svg PUBLIC "-//W3C//DTD SVG 1.1//EN" "http://www.w3.org/Graphics/SVG/1.1/DTD/svg11.dtd">
<svg width="100%" height="100%" viewBox="0 0 718 812" version="1.1" xmlns="http://www.w3.org/2000/svg" xmlns:xlink="http://www.w3.org/1999/xlink" xml:space="preserve" xmlns:serif="http://www.serif.com/" style="fill-rule:evenodd;clip-rule:evenodd;stroke-linejoin:round;stroke-miterlimit:2;">
    <g transform="matrix(1,0,0,1,-641,-583)">
        <g transform="matrix(1,0,0,1.0186,0,0)">
            <g id="Save" transform="matrix(1,0,0,0.981741,0,0)">
                <g id="Folder" transform="matrix(16.2942,6.02524e-31,2.00841e-31,16.2942,-8439.22,-2301.41)">
                    <path d="M594,197.8L564.6,197.8L557.3,208.8L557.3,225.8C557.3,226.4 557.7,226.8 558.3,226.8L600.3,226.8C600.9,226.8 601.3,226.4 601.3,225.8L601.3,208.8L594,197.8ZM599.2,224.8L559.2,224.8L559.2,210.8L572.4,210.8C573.1,214.2 575.5,216.8 579.2,216.8C582.9,216.8 585.3,214.2 586,210.8L599.2,210.8L599.2,224.8ZM584.2,208.8C584.2,212.1 582.5,214.8 579.2,214.8C575.9,214.8 574.2,212.1 574.2,208.8L559.2,208.8L565.2,199.8L593.2,199.8L599.2,208.8L584.2,208.8Z" style="fill-rule:nonzero;"/>
                </g>
                <g id="Forward--small-" serif:id="Forward (small)" transform="matrix(1.01302e-15,16.5438,-16.5438,1.01302e-15,4598.28,-4148.43)">
                    <path d="M311.2,217.5L300,206.5L300,213L286,213L286,222L300,222L300,228.5L311.2,217.5Z" style="fill-rule:nonzero;"/>
                </g>
            </g>
        </g>
    </g>
</svg>
